<?xml version="1.0" encoding="UTF-8" standalone="no"?>
<!DOCTYPE svg PUBLIC "-//W3C//DTD SVG 1.1//EN" "http://www.w3.org/Graphics/SVG/1.1/DTD/svg11.dtd">
<svg width="100%" height="100%" viewBox="0 0 1024 1024" version="1.1" xmlns="http://www.w3.org/2000/svg" xmlns:xlink="http://www.w3.org/1999/xlink" xml:space="preserve" xmlns:serif="http://www.serif.com/" style="fill-rule:evenodd;clip-rule:evenodd;stroke-linejoin:round;stroke-miterlimit:2;">
    <g transform="matrix(0.873411,0,0,0.873411,63.8564,49.7491)">
        <g transform="matrix(1.07626,0,0,1.15616,-39.0442,-34.5881)">
            <path d="M513.018,55.013L513.018,138.635L513.062,138.635C708.019,138.635 811,264.043 811,459L513.018,459C513.018,459 916,459 916,459C916,236.212 735.665,55.543 513.018,55.013Z" style="fill:rgb(64,121,199);"/>
        </g>
        <g transform="matrix(-1.28885,0,0,1.10574,1068.43,36.2487)">
            <path d="M209,472.25C209,450.035 190.965,432 168.75,432L88.25,432C66.035,432 45.866,450.035 35.252,472.25C-16.907,581.417 -18.353,690.583 35.252,799.75C46.682,823.027 66.035,840 88.25,840L168.75,840C190.965,840 209,821.965 209,799.75L209,472.25Z" style="fill:rgb(64,121,199);"/>
        </g>
        <g transform="matrix(1.06754,0,0,0.943358,-36.7132,116.855)">
            <path d="M515.026,459L515.026,867L744.416,867C755.777,867 765,856.562 765,843.706L765,482.294C765,469.438 755.777,459 744.416,459L515.026,459Z" style="fill:rgb(64,121,199);"/>
        </g>
    </g>
    <g transform="matrix(-0.873411,0,0,0.873411,960.144,49.7491)">
        <g transform="matrix(1.07626,0,0,1.15616,-39.0442,-34.5881)">
            <path d="M513.018,55.013L513.018,138.635L513.062,138.635C708.019,138.635 811,264.043 811,459L513.018,459C513.018,459 916,459 916,459C916,236.212 735.665,55.543 513.018,55.013Z" style="fill:rgb(64,121,199);"/>
        </g>
        <g transform="matrix(-1.28885,0,0,1.10574,1068.43,36.2487)">
            <path d="M209,472.25C209,450.035 190.965,432 168.75,432L88.25,432C66.035,432 45.866,450.035 35.252,472.25C-16.907,581.417 -18.353,690.583 35.252,799.75C46.682,823.027 66.035,840 88.25,840L168.75,840C190.965,840 209,821.965 209,799.75L209,472.25Z" style="fill:rgb(64,121,199);"/>
        </g>
        <g transform="matrix(1.06754,0,0,0.943358,-36.7132,116.855)">
            <path d="M515.026,459L515.026,867L744.416,867C755.777,867 765,856.562 765,843.706L765,482.294C765,469.438 755.777,459 744.416,459L515.026,459Z" style="fill:rgb(64,121,199);"/>
        </g>
    </g>
</svg>
